HIERARCHY
ROOT Hips
{
    OFFSET 0.000000 0.000000 0.000000
    CHANNELS 6 Xposition Yposition Zposition Zrotation Xrotation Yrotation
    JOINT Spine
    {
        OFFSET -0.000000 7.236184 0.000000
        CHANNELS 3 Zrotation Xrotation Yrotation
        JOINT Spine1
        {
            OFFSET -0.000000 20.420147 0.000000
            CHANNELS 3 Zrotation Xrotation Yrotation
            JOINT Neck
            {
                OFFSET -0.000000 20.336288 1.848754
                CHANNELS 3 Zrotation Xrotation Yrotation
                JOINT Head
                {
                    OFFSET -0.000000 12.354461 -1.764923
                    CHANNELS 3 Zrotation Xrotation Yrotation
                    End Site
                    {
                        OFFSET -0.000000 22.061537 0.000000
                    }
                }
            }
            JOINT LeftShoulder
            {
                OFFSET 3.573296 18.396038 -0.314103
                CHANNELS 3 Zrotation Xrotation Yrotation
                JOINT LeftArm
                {
                    OFFSET 10.880760 0.000000 0.000000
                    CHANNELS 3 Zrotation Xrotation Yrotation
                    JOINT LeftForeArm
                    {
                        OFFSET 27.185530 0.000000 0.000000
                        CHANNELS 3 Zrotation Xrotation Yrotation
                        JOINT LeftHand
                        {
                            OFFSET 27.825975 0.000000 0.000000
                            CHANNELS 3 Zrotation Xrotation Yrotation
                            End Site
                            {
                                OFFSET 13.236923 0.000000 0.000000
                            }
                        }
                    }
                }
            }
            JOINT RightShoulder
            {
                OFFSET -3.474926 18.396038 -0.314103
                CHANNELS 3 Zrotation Xrotation Yrotation
                JOINT RightArm
                {
                    OFFSET -10.880760 0.000000 0.000000
                    CHANNELS 3 Zrotation Xrotation Yrotation
                    JOINT RightForeArm
                    {
                        OFFSET -27.185530 0.000000 0.000000
                        CHANNELS 3 Zrotation Xrotation Yrotation
                        JOINT RightHand
                        {
                            OFFSET -27.825975 0.000000 0.000000
                            CHANNELS 3 Zrotation Xrotation Yrotation
                            End Site
                            {
                                OFFSET -13.236923 0.000000 0.000000
                            }
                        }
                    }
                }
            }
        }
    }
    JOINT LeftUpLeg
    {
        OFFSET 8.824615 0.000000 0.000000
        CHANNELS 3 Zrotation Xrotation Yrotation
        JOINT LeftLeg
        {
            OFFSET -0.000000 -35.111282 0.000000
            CHANNELS 3 Zrotation Xrotation Yrotation
            JOINT LeftFoot
            {
                OFFSET -0.000000 -42.324711 0.000000
                CHANNELS 3 Zrotation Xrotation Yrotation
                JOINT LeftToeBase
                {
                    OFFSET -0.000000 -5.735999 13.236923
                    CHANNELS 3 Zrotation Xrotation Yrotation
                    End Site
                    {
                        OFFSET -0.000000 0.000000 3.529846
                    }
                }
            }
        }
    }
    JOINT RightUpLeg
    {
        OFFSET -8.824615 0.000000 0.000000
        CHANNELS 3 Zrotation Xrotation Yrotation
        JOINT RightLeg
        {
            OFFSET -0.000000 -35.111282 0.000000
            CHANNELS 3 Zrotation Xrotation Yrotation
            JOINT RightFoot
            {
                OFFSET -0.000000 -42.324711 0.000000
                CHANNELS 3 Zrotation Xrotation Yrotation
                JOINT RightToeBase
                {
                    OFFSET -0.000000 -5.735999 13.236923
                    CHANNELS 3 Zrotation Xrotation Yrotation
                    End Site
                    {
                        OFFSET -0.000000 0.000000 3.529846
                    }
                }
            }
        }
    }
}
MOTION
Frames:    12
Frame Time:    0.008333
14.186122    85.529106    97.472015    -6.149108    -7.059408    -174.310837    0.610872    -13.132851    5.272919    -6.834674    0.717704    5.245365    1.145266    11.559707    1.300612    0.046045    -6.545120    1.312052    20.262722    -3.354308    -4.101406    -12.136201    -4.165931    -5.342118    8.547579    6.296751    -1.360845    -15.591852    6.058663    2.491816    -19.388838    -2.191305    1.636483    3.303455    -10.594168    5.149242    -26.866169    -0.093395    23.454086    -21.711504    3.920564    8.686158    13.846467    -22.236252    -7.115981    -2.060630    28.428333    15.113880    -15.973620    18.758883    -26.214800    -1.253843    -3.149731    1.397959    -13.682227    2.506575    -7.208104    1.800716    2.432715    -4.292675    7.973732    -6.378909    -5.780934    -2.746589    -0.179607    2.971287    
13.719901    85.436356    97.271965    -5.829066    -7.028947    -174.536835    0.476387    -13.309772    4.890108    -6.345476    0.571816    4.866135    1.542799    11.677292    1.771659    0.010240    -6.500935    1.779232    20.629810    -3.863364    -4.363902    -11.643131    -4.695972    -5.711454    9.761221    5.830501    -1.959770    -16.766436    5.665113    2.263571    -19.273785    -1.915752    1.508673    3.201719    -10.068576    4.509704    -25.746023    0.588990    23.016336    -18.219481    4.616013    8.116879    13.746017    -20.585526    -6.951435    -1.790249    26.666359    14.461692    -15.935528    17.278399    -25.503935    -1.078822    -3.514583    1.203662    -13.745829    2.428161    -7.261192    1.848642    2.704083    -4.201352    8.385372    -6.236825    -5.582683    -2.732745    -0.373628    2.957102    
13.239416    85.346825    97.082573    -5.512579    -6.996533    -174.723114    0.310369    -13.466479    4.493214    -5.830975    0.446536    4.479232    1.940382    11.743674    2.219612    -0.004987    -6.416004    2.226471    20.932384    -4.382805    -4.616608    -11.212689    -5.260256    -6.164310    11.141738    5.263235    -2.663198    -17.760824    5.211134    1.997705    -19.130013    -1.648974    1.340355    3.169608    -9.669119    3.900251    -24.666063    1.182469    22.625235    -14.583493    5.243407    7.391068    13.637744    -19.004242    -6.837478    -1.577305    24.956717    13.922055    -15.848416    15.772479    -24.782167    -0.918347    -3.835100    1.025251    -13.838069    2.307849    -7.347062    1.906339    3.064528    -4.078692    8.812073    -6.071562    -5.412362    -2.708277    -0.600909    2.931545    
12.750757    85.262474    96.907234    -5.203421    -6.963315    -174.868423    0.117521    -13.600137    4.087022    -5.302501    0.343926    4.088848    2.335823    11.752070    2.640643    0.000827    -6.288713    2.649169    21.165806    -4.900849    -4.852684    -10.854091    -5.869225    -6.699475    12.672083    4.594244    -3.467463    -18.534206    4.701772    1.699417    -18.955887    -1.400804    1.125058    3.205743    -9.398968    3.336509    -23.645924    1.687973    22.278107    -10.912427    5.779186    6.535835    13.524767    -17.516514    -6.763099    -1.412529    23.323275    13.478931    -15.716276    14.285606    -24.067564    -0.775913    -4.086282    0.866659    -13.959382    2.140743    -7.458305    1.973297    3.516525    -3.932818    9.251643    -5.880246    -5.268066    -2.673908    -0.860611    2.895391    
12.240876    85.181854    96.742081    -4.892613    -6.929010    -174.978439    -0.103166    -13.713970    3.660838    -4.751544    0.262095    3.684049    2.743512    11.698765    3.048105    0.026434    -6.114340    3.059526    21.335741    -5.424244    -5.076538    -10.561877    -6.556791    -7.335566    14.386412    3.792152    -4.401091    -19.080832    4.116836    1.370434    -18.741070    -1.167344    0.850438    3.307081    -9.249271    2.810917    -22.663450    2.123808    21.958443    -7.175228    6.220924    5.552263    13.405222    -16.085604    -6.710083    -1.278497    21.723438    13.094913    -15.540613    12.800958    -23.348522    -0.646037    -4.257660    0.721834    -14.114095    1.915804    -7.589999    2.050964    4.078893    -3.770450    9.720726    -5.650826    -5.138587    -2.629638    -1.162200    2.848653    
11.720228    85.107712    96.591827    -4.586390    -6.895772    -175.052368    -0.342610    -13.806328    3.223940    -4.196432    0.204647    3.272854    3.158710    11.581482    3.434970    0.071159    -5.896047    3.449493    21.437679    -5.934033    -5.283762    -10.348812    -7.327183    -8.062841    16.240582    2.857011    -5.452321    -19.358454    3.459469    1.027561    -18.480915    -0.953975    0.517181    3.465914    -9.226739    2.341892    -21.744377    2.484695    21.665022    -3.527909    6.545954    4.496408    13.281363    -14.748112    -6.664603    -1.167060    20.195688    12.760155    -15.329490    11.371315    -22.651186    -0.528505    -4.337346    0.590604    -14.301505    1.628726    -7.730781    2.137975    4.748981    -3.605958    10.216314    -5.378838    -5.020072    -2.577909    -1.505275    2.793963    
11.187058    85.040550    96.456650    -4.282823    -6.864793    -175.093979    -0.595440    -13.879400    2.775508    -3.642556    0.172165    2.853366    3.587502    11.402524    3.805516    0.132112    -5.637110    3.821812    21.474203    -6.422931    -5.478948    -10.218194    -8.194497    -8.882120    18.221022    1.767494    -6.630166    -19.349468    2.714231    0.686937    -18.165426    -0.755312    0.124587    3.673009    -9.331554    1.931181    -20.886101    2.779504    21.388880    -0.042279    6.753909    3.409445    13.151995    -13.502822    -6.612789    -1.067470    18.739832    12.458417    -15.087030    10.007987    -21.985685    -0.419147    -4.331106    0.468390    -14.523853    1.271788    -7.870090    2.235606    5.533917    -3.448277    10.746747    -5.054563    -4.908392    -2.520868    -1.895261    2.733651    
10.639717    84.980965    96.336922    -3.979997    -6.837208    -175.106918    -0.855992    -13.935237    2.314507    -3.095609    0.165230    2.423503    4.035491    11.164957    4.164083    0.206778    -5.340761    4.179384    21.448309    -6.883880    -5.669244    -10.174871    -9.167160    -9.791846    20.308916    0.496701    -7.945051    -19.035131    1.860088    0.368600    -17.784077    -0.566280    -0.325705    3.918937    -9.569378    1.580372    -20.082359    3.019431    21.123667    3.207598    6.854467    2.334208    13.015819    -12.351403    -6.544643    -0.972521    17.361816    12.176903    -14.817893    8.716670    -21.359285    -0.314079    -4.250517    0.350924    -14.783914    0.836747    -7.996598    2.346458    6.441314    -3.303634    11.318946    -4.667268    -4.803893    -2.461175    -2.337381    2.670602    
10.079138    84.929863    96.233704    -3.677238    -6.813397    -175.094986    -1.117952    -13.973909    1.841788    -2.562117    0.183019    1.982823    4.506340    10.875424    4.513709    0.290057    -5.013020    4.523544    21.362526    -7.308045    -5.863243    -10.223931    -10.241752    -10.783921    22.471434    -0.981926    -9.403395    -18.401621    0.874538    0.098895    -17.330328    -0.381780    -0.828243    4.195241    -9.950599    1.292978    -19.328489    3.216744    20.866898    6.143971    6.866975    1.314776    12.872530    -11.301531    -6.453456    -0.878557    16.077938    11.905525    -14.528871    7.502929    -20.778206    -0.211168    -4.110886    0.235875    -15.083493    0.317123    -8.097359    2.474047    7.475699    -3.177361    11.934053    -4.207380    -4.710728    -2.400546    -2.832508    2.606669    
9.508122    84.888145    96.148209    -3.374898    -6.793063    -175.063019    -1.375199    -13.994678    1.359343    -2.047996    0.223873    1.532075    5.000088    10.543449    4.857079    0.377161    -4.662027    4.855673    21.220348    -7.686661    -6.069579    -10.369338    -11.403839    -11.845592    24.664116    -2.690472    -11.006270    -17.443401    -0.263252    -0.091734    -16.802109    -0.197558    -1.373505    4.493800    -10.484093    1.071965    -18.619040    3.383687    20.619333    8.701862    6.817232    0.389397    12.722617    -10.361488    -6.335103    -0.784208    14.907117    11.636675    -14.228200    6.370497    -20.246744    -0.110233    -3.927946    0.123086    -15.423409    -0.291766    -8.159416    2.622760    8.638143    -3.074468    12.587786    -3.667060    -4.633947    -2.339129    -3.376967    2.541986    
8.919629    84.856003    96.080193    -3.068314    -6.774768    -175.016129    -1.627845    -13.995461    0.860496    -1.546708    0.285405    1.064117    5.522957    10.173754    5.203263    0.464913    -4.289345    5.183686    21.021297    -8.018924    -6.301867    -10.616078    -12.651870    -12.980323    26.874155    -4.684357    -12.786462    -16.146650    -1.596869    -0.168731    -16.192045    -0.005668    -1.959608    4.815317    -11.179412    0.914301    -17.938072    3.529575    20.380030    10.882360    6.727123    -0.430667    12.564774    -9.520299    -6.186468    -0.689108    13.844268    11.360454    -13.916525    5.300010    -19.756844    -0.010797    -3.711109    0.012049    -15.810538    -1.005919    -8.170541    2.801044    9.950992    -2.998324    13.284577    -3.029226    -4.578090    -2.273904    -3.972500    2.473264    
8.323254    84.834633    96.031609    -2.761616    -6.756611    -174.961563    -1.870006    -13.972529    0.352336    -1.063241    0.363269    0.584714    6.063546    9.783090    5.551729    0.548999    -3.908865    5.507041    20.768440    -8.294195    -6.567991    -10.961924    -13.947701    -14.159014    29.024221    -6.961198    -14.728464    -14.535721    -3.129786    -0.093767    -15.512798    0.196752    -2.567410    5.156687    -12.015911    0.821110    -17.294886    3.650238    20.157194    12.646525    6.612368    -1.118622    12.402650    -8.789494    -6.010751    -0.596130    12.912798    11.076855    -13.601101    4.302296    -19.313910    0.082716    -3.473191    -0.092283    -16.241421    -1.823590    -8.116592    3.014941    11.402261    -2.957145    14.007338    -2.292323    -4.549930    -2.203680    -4.601448    2.399120    
